<?xml version="1.0" encoding="utf-8"?>
<!-- Generator: Adobe Illustrator 16.0.0, SVG Export Plug-In . SVG Version: 6.00 Build 0)  -->
<!DOCTYPE svg PUBLIC "-//W3C//DTD SVG 1.1//EN" "http://www.w3.org/Graphics/SVG/1.1/DTD/svg11.dtd">
<svg version="1.1" id="Layer_1" xmlns="http://www.w3.org/2000/svg" xmlns:xlink="http://www.w3.org/1999/xlink" x="0px" y="0px"
	 width="665.705px" height="665.705px" viewBox="0 0 665.705 665.705" enable-background="new 0 0 665.705 665.705"
	 xml:space="preserve">
<g>
	<path fill-rule="evenodd" clip-rule="evenodd" fill="#FDFDFD" d="M585.497,547.98c-0.724,0-1.255,0-1.786,0
		c-144.91,0-289.82,0.061-434.73-0.076c-17.934-0.017-33.655-6.71-46.774-18.941c-15.101-14.08-22.914-31.599-22.925-52.281
		c-0.065-122.592-0.032-245.183-0.032-367.774c0-0.693,0-1.387,0-2.25c0.663,0,1.187,0,1.711,0
		c144.64,0,289.278-0.042,433.918,0.051c18.608,0.012,34.843,6.74,48.308,19.593c14.938,14.259,22.313,31.869,22.312,52.551
		c-0.005,122.375-0.002,244.749-0.002,367.124C585.497,546.568,585.497,547.161,585.497,547.98z M562.129,524.647
		c0-1.001,0-1.809,0-2.616c0-114.74,0.003-229.482-0.002-344.223c-0.001-26.035-21.622-47.769-47.528-47.77
		c-136.735-0.005-273.472-0.003-410.208-0.003c-0.528,0-1.056,0-1.762,0c0,0.721,0,1.299,0,1.878
		c0,114.958-0.001,229.916,0.002,344.874c0,7.835,1.704,15.308,5.54,22.132c9.561,17.008,24.228,25.691,43.725,25.699
		c136.14,0.054,272.28,0.028,408.42,0.028C560.85,524.647,561.383,524.647,562.129,524.647z"/>
	<path fill-rule="evenodd" clip-rule="evenodd" fill="#FDFDFD" d="M182.354,314.362c-8.101-40.791-16.176-81.452-24.251-122.113
		c-0.124,0.014-0.248,0.028-0.371,0.043c0,40.621,0,81.241,0,121.966c-7.863,0-15.572,0-23.385,0c0-52.108,0-104.196,0-156.404
		c11.698,0,23.421,0,35.302,0c6.335,30.371,12.679,60.778,19.022,91.185c0.144,0,0.288-0.001,0.432-0.001
		c6.34-30.393,12.68-60.785,19.031-91.229c11.791,0,23.474,0,35.282,0c0,52.137,0,104.26,0,156.468c-7.733,0-15.449,0-23.299,0
		c0-40.645,0-81.25,0-121.854c-0.102-0.025-0.204-0.05-0.306-0.074c-0.115,0.286-0.281,0.562-0.34,0.859
		c-4.909,24.734-9.807,49.471-14.713,74.206c-3.021,15.233-6.058,30.463-9.066,45.699c-0.151,0.768-0.275,1.283-1.261,1.27
		C190.481,314.333,186.531,314.362,182.354,314.362z"/>
	<path fill-rule="evenodd" clip-rule="evenodd" fill="#FDFDFD" d="M387.779,429.57c0-29.697,0-59.395,0-89.191
		c8.165,0,16.2,0,24.309,0c0,52.099,0,104.181,0,156.429c-1.582,0-3.132,0-4.682,0c-5.579,0-11.16-0.086-16.735,0.053
		c-1.689,0.042-2.28-0.564-2.796-2.045c-9.408-27.014-18.871-54.009-28.322-81.007c-1.693-4.838-3.387-9.675-5.08-14.512
		c-0.099,0.013-0.197,0.025-0.297,0.038c0,32.416,0,64.832,0,97.36c-8.225,0-16.267,0-24.417,0c0-52.054,0-104.127,0-156.416
		c0.55,0,1.121,0,1.692,0c7.15,0,14.3,0.034,21.449-0.03c1.323-0.012,1.942,0.331,2.421,1.647
		c7.845,21.603,15.756,43.18,23.651,64.763c2.676,7.313,5.351,14.627,8.029,21.939c0.127,0.347,0.28,0.683,0.422,1.023
		C387.542,429.604,387.66,429.587,387.779,429.57z"/>
	<path fill-rule="evenodd" clip-rule="evenodd" fill="#FDFDFD" d="M532.067,340.375c0,7.776,0,15.451,0,23.347
		c-8.597,0-17.165,0-25.892,0c0,44.448,0,88.677,0,132.995c-9.062,0-17.964,0-27.033,0c0-44.32,0-88.548,0-132.935
		c-8.698,0-17.23,0-25.857,0c0-7.876,0-15.594,0-23.407C479.507,340.375,505.703,340.375,532.067,340.375z"/>
	<path fill-rule="evenodd" clip-rule="evenodd" fill="#FCFCFC" d="M297.116,157.802c8.895,0,17.711,0,26.672,0
		c0,52.118,0,104.243,0,156.464c-8.86,0-17.713,0-26.672,0C297.116,262.128,297.116,210,297.116,157.802z"/>
</g>
</svg>
